<svg width="22" height="22" fill="none" xmlns="http://www.w3.org/2000/svg"><path d="M17.417 1.833H5.747a2.75 2.75 0 00-2.704 2.255L1.88 10.505a2.75 2.75 0 002.704 3.245h4.18l-.513 1.311a3.786 3.786 0 003.566 5.106.916.916 0 00.834-.541l2.612-5.876h2.155a2.75 2.75 0 002.75-2.75V4.583a2.75 2.75 0 00-2.75-2.75zM13.75 12.642l-2.493 5.61a1.952 1.952 0 01-1.265-2.548l.485-1.311a1.833 1.833 0 00-1.714-2.475h-4.18a.917.917 0 01-.706-.33.916.916 0 01-.21-.752L4.83 4.418a.917.917 0 01.916-.751h8.003v8.974zm4.583-1.64a.916.916 0 01-.916.916h-1.834v-8.25h1.834a.917.917 0 01.916.917V11z" fill="#EB5757"/></svg>