<svg width="22" height="22" fill="none" xmlns="http://www.w3.org/2000/svg"><g clip-path="url(#clip0)"><path d="M10.428 3.48a.64.64 0 011.145 0l2.055 4.162a.639.639 0 00.48.35l4.595.667a.638.638 0 01.354 1.09l-3.324 3.24a.64.64 0 00-.184.565l.784 4.576a.64.64 0 01-.927.674l-4.11-2.16a.638.638 0 00-.594 0l-4.109 2.16a.64.64 0 01-.927-.674l.785-4.576a.638.638 0 00-.184-.565l-3.324-3.24a.639.639 0 01.354-1.09l4.595-.667a.639.639 0 00.48-.35l2.056-4.163z" fill="#FABD48"/></g><defs><clipPath id="clip0"><path fill="#fff" transform="translate(2.75 2.75)" d="M0 0h16.5v16.5H0z"/></clipPath></defs></svg>